<svg xmlns="http://www.w3.org/2000/svg" xmlns:xlink="http://www.w3.org/1999/xlink" width="1366" height="768" viewBox="0 0 1366 768"><defs><style>.a,.ae{fill:#fff;}.a{stroke:#707070;}.b{clip-path:url(#a);}.c{fill:#dce2f7;opacity:0.55;}.d{opacity:0.4;}.ao,.e,.g,.p{opacity:0.95;}.e{fill:url(#b);}.f{fill:#96bfe6;}.g{fill:url(#c);}.h{fill:#4598e6;}.i{fill:#eea886;}.j{fill:#16202e;}.k,.n{fill:#faa146;}.l{fill:#8e4f3a;}.m{fill:#633029;}.n{stroke:rgba(0,0,0,0);}.o{opacity:0.15;}.p,.w{fill:url(#d);}.q{fill:#323657;}.r{fill:#fccca2;}.s{fill:#e55353;}.t{fill:#a77860;}.u{fill:#ebeeff;}.v{fill:url(#e);}.x{fill:#80d550;}.y{fill:#e65353;}.z{fill:#eea987;}.aa{fill:#d98b52;}.ab{fill:#b84343;}.ac{fill:#c78d71;}.ad{fill:#292c47;}.af{fill:#424773;}.ag{fill:#3a3f47;}.ah{fill:#e2d2ca;}.ai{fill:#ffdf69;}.aj{fill:#ab9546;}.ak{fill:#344052;}.al{fill:#eb4747;}.am{fill:#393d63;}.an{opacity:0.5;}.ao{fill:url(#r);}.ap{fill:#385369;}.aq{fill:#434343;}.ar{opacity:0.2;}.as{fill:#decbc4;}.at{fill:#e8734d;}.au{fill:#3c4145;}.av{fill:#51565c;}.aw{fill:#f5e2d9;}.ax{fill:#d44040;}.ay{fill:#2d3133;}</style><clipPath id="a"><rect class="a" width="1366" height="768"/></clipPath><linearGradient id="b" x1="0.571" y1="1.795" x2="0.493" y2="0.379" gradientUnits="objectBoundingBox"><stop offset="0" stop-color="#d1d7e0"/><stop offset="1" stop-color="#ebebff"/></linearGradient><linearGradient id="c" x1="0.5" y1="2.165" x2="0.5" y2="0.322" xlink:href="#b"/><linearGradient id="d" x1="0.5" y1="1.147" x2="0.5" y2="0.24" xlink:href="#b"/><linearGradient id="e" x1="0" y1="0.5" x2="1" y2="0.5" xlink:href="#b"/><linearGradient id="r" x1="0.429" y1="1.795" x2="0.507" y2="0.379" xlink:href="#b"/></defs><g class="b"><path class="c" d="M494.563,472.233c-23.5,21.171-60.4,25.482-93.982,23.8-105.482-5.294-200.7-56.713-283.061-114.877C87.7,360.1,58.348,337.385,38.976,308.408c-39.4-59.027-27.712-140.8,27.07-189.427,18.641-16.548,41.238-29.229,64.435-40.477C171.726,58.514,216.22,42.47,263.04,37.9c33.384-3.256,67.151-.6,100.367,3.933,92.723,12.7,183.737,40.771,260.026,88.82,33.474,21.069,65.011,47.264,78.8,81.367s4.964,77.278-29.2,97.454c-14.132,8.346-31.022,12.111-47.564,15.655-24.348,5.2-49.081,10.343-71.055,20.931-22.694,10.936-49.56,32.089-45.069,56.3C514.169,428.315,518.036,451.128,494.563,472.233Z" transform="translate(890.172 -68.289) rotate(34)"/><g transform="translate(-690.977 298.196)"><g class="d" transform="translate(1066.977 282.694)"><rect class="e" width="100.296" height="100.296" rx="8" transform="translate(0 9.645)"/><rect class="f" width="46.435" height="2.294" transform="translate(16.057 87.107)"/><rect class="f" width="33.281" height="2.294" transform="translate(16.421 94.335)"/><rect class="g" width="67.603" height="58.003" transform="translate(16.347 13.395)"/><rect class="h" width="7.806" height="1.446" transform="translate(46.245 75.9)"/><path class="h" d="M1405.993,551.257v1.414h8.324v7.812h1.414v-9.226Zm-56.526,9.226h1.414v-7.812h8.324v-1.414h-9.738Zm64.85,40.31v7.815h-8.324v1.414h9.737v-9.229Zm-63.436,0h-1.414v9.229h9.738v-1.414h-8.324Z" transform="translate(-1332.451 -531.193)"/><g transform="translate(39.028 13.611)"><path class="i" d="M1467.06,524.312a.125.125,0,0,1-.027,0c-.273-.066-.706-1.376-.79-1.637-.02-.072-.062-.2-.121-.386-.339-1.048-1.133-3.5-.823-4.442.1-.3.25-.468.453-.51.434-.09.931.462.952.485l.01.012,0,.016c.113,1.032.663,6.193.426,6.431A.113.113,0,0,1,1467.06,524.312Zm-1.209-6.889a.4.4,0,0,0-.08.008c-.165.034-.292.184-.378.444-.3.909.516,3.431.824,4.38.059.184.1.316.122.388a4.543,4.543,0,0,0,.718,1.569s.007,0,.014-.005a49.586,49.586,0,0,0-.453-6.333A1.357,1.357,0,0,0,1465.85,517.424Z" transform="translate(-1465.228 -517.324)"/></g><g transform="translate(35.835)"><path class="j" d="M1462.454,445.763s6.661-.7,9.062,5.735,4.66,8.539,4.943,11.918c1.144,13.669,7.527,10.577,5.732,18.456s-3.038,9.071-3.038,9.071l-15.261-2.992-15.459.05s6.048-3.021,4.7-9.454-4.7-16.977-2.807-24.158S1458.473,446.312,1462.454,445.763Z" transform="translate(-1448.433 -445.741)"/></g><g transform="translate(57.852 13.611)"><path class="i" d="M1564.363,524.311a.114.114,0,0,1-.081-.035c-.237-.237.313-5.4.426-6.431l0-.016.011-.012c.021-.024.517-.576.952-.485.2.042.355.214.453.51.309.94-.484,3.394-.824,4.442-.059.182-.1.314-.12.384-.085.264-.517,1.573-.79,1.639A.121.121,0,0,1,1564.363,524.311Zm.442-6.438a49.315,49.315,0,0,0-.452,6.334c.006.006.009.005.013,0a4.544,4.544,0,0,0,.718-1.571c.019-.07.062-.2.121-.386.307-.949,1.123-3.471.824-4.38-.086-.26-.213-.41-.378-.444C1565.306,517.359,1564.878,517.8,1564.806,517.873Z" transform="translate(-1564.224 -517.323)"/></g><g transform="translate(18.939 34.525)"><path class="k" d="M1421.815,654.269h-9.509c-1.972-3.594-3.574-6.4-3.574-6.4a28.732,28.732,0,0,0-2.276,6.4h-32.013a27.654,27.654,0,0,1-.417-6.7s-1.711,3.092-3.7,6.7h-10.755c2.854-5.344,8.2-15.075,9.417-16.343,1.526-1.6,10.371-7.713,16.687-9.708s9.909-.069,9.909-.069a74.837,74.837,0,0,1,12.485,3.547C1410.432,632.631,1416.946,644.66,1421.815,654.269Z" transform="translate(-1359.576 -627.313)"/></g><g transform="translate(40.224 3.713)"><path class="l" d="M1482.03,465.338s8.822,1.273,7.531,14.3-9.078,11.99-9.6,11.979-7.811.271-8.442-15.621C1471.521,475.993,1471.226,464.241,1482.03,465.338Z" transform="translate(-1471.52 -465.266)"/></g><g transform="translate(44.609 27.159)"><path class="l" d="M1504.624,589.165s-.546,6.774.759,8.8-1.116,4.784-6.1,3.842-4.7-3.77-4.7-3.77a20.675,20.675,0,0,0,.988-7.527C1495.161,587.168,1504.624,589.165,1504.624,589.165Z" transform="translate(-1494.578 -588.574)"/></g><g transform="translate(39.348 1.653)"><path class="j" d="M1477.286,461.288s4.122,4.334,6.037,6.528,2.135,6.433,2.135,6.433,3.225-3.939,1.877-8.528-4.54-13.514-12.619-10.772-8.378,14.811-7.43,20.8C1467.285,475.744,1470.912,462.534,1477.286,461.288Z" transform="translate(-1466.908 -454.436)"/></g><g transform="translate(43.354 34.723)"><path class="l" d="M1502.377,629.584s-6.118,15.5-9.837,18.189c0,0-4.885-15.8-4.543-18.119C1488,629.654,1495.366,626.767,1502.377,629.584Z" transform="translate(-1487.98 -628.35)"/></g><path class="j" d="M1459.306,615.131s-10.907,9.7-8.076,15.758c2.416,5.167,10.982,2,9.569-3.416A60.945,60.945,0,0,1,1459.306,615.131Z" transform="translate(-1414.484 -582.922)"/><path class="m" d="M1503.2,597.118a7.707,7.707,0,0,0,7.418-.848,4.773,4.773,0,0,1-3.709,2.4A3.655,3.655,0,0,1,1503.2,597.118Z" transform="translate(-1456.953 -567.647)"/><g transform="translate(69.771 83.113)"><path class="h" d="M2390.448,1290.8a7.928,7.928,0,1,1,7.928-7.928A7.937,7.937,0,0,1,2390.448,1290.8Zm0-14.321a6.393,6.393,0,1,0,6.393,6.393A6.4,6.4,0,0,0,2390.448,1276.474Z" transform="translate(-2382.521 -1274.94)"/><path class="n" d="M.591,5.7,0,4.253,4.119,0,5.2,1.085Z" transform="translate(11.734 6.82) rotate(135)"/><rect class="k" width="1" height="2" transform="translate(7.229 10.997)"/></g></g><g class="o" transform="translate(1258.672 233.056)"><rect class="p" width="73.688" height="66.365" rx="8" transform="translate(0 12.822)"/><rect class="h" width="5.844" height="1.082" transform="translate(33.642 66.635)"/><path class="h" d="M1944.886,364.3v1.058h6.232V371.2h1.059V364.3Zm-42.319,6.907h1.058v-5.849h6.232V364.3h-7.29Zm48.551,30.179v5.851h-6.232v1.059h7.29v-6.909Zm-47.493,0h-1.058v6.909h7.29v-1.059h-6.232Z" transform="translate(-1890.528 -339.465)"/><path class="q" d="M1951.127,412.207s-3.617,13.613-4.372,16.681a25.488,25.488,0,0,1-1.87,4.343c-.006.013-.013.026-.023.042a3.467,3.467,0,0,0-.338,1.106c-.146,1.135.29,2.03-.465,3.376l-.137.566h-7.16c.836-2.482,1.9-5.64,2.745-8.184.712-2.147,1.275-3.855,1.425-4.349.442-1.477,2.066-6.259,3.445-9.433.481-1.106,2.336-2.2,3.978-2.99C1949.825,412.666,1951.127,412.207,1951.127,412.207Z" transform="translate(-1918.221 -378.265)"/><path class="r" d="M1986.4,248.2s-2.283-14.765,9.946-14.492,12.065,7.573,11.847,14.819-4.9,6.7.381,16.781S2004,275.387,2004,275.387l-7.652-10.515Z" transform="translate(-1958.283 -233.704)"/><path class="i" d="M1995.608,240.441s-8.282,1.308-8.608,13.076,2.234,14.275,9.48,11.823,9.534-14.765,9.7-16.672S2006.777,239.024,1995.608,240.441Z" transform="translate(-1958.884 -239.021)"/><path class="s" d="M1977.517,403.869c.029,4.05-4.626,13.737-5.344,16.73-.085.348-.176.67-.267.973h-22.6c-.117-1.4-.228-2.589-.283-3.263-.179-2.212-2.42-6.977-2.345-9.2.078-2.261,1.187-4.213,2.739-6.626.481-.748.989-1.509,1.493-2.251a42.827,42.827,0,0,1,4.1-5.361,13.148,13.148,0,0,1,1.649-1.314l0,0a7.618,7.618,0,0,1,1.7-.895l7.117-1.139s4.437,1.607,6.99,2.2C1972.462,393.726,1977.442,394.455,1977.517,403.869Z" transform="translate(-1926.249 -361.515)"/><path class="s" d="M1965.386,402.216l-4.126,6.5-3.808,6c.009-.032.263-.941.693-3.572.082-.5.17-1.061.264-1.69a4.476,4.476,0,0,1,.12-.554h0c1.63-3.757,6.669-6.59,6.853-6.684Z" transform="translate(-1934.977 -370.174)"/><path class="i" d="M2016.146,343.5c-.718,1.356-1.476,9.77-1.476,9.77s-10.129,3.828-9.092,1.663a8.278,8.278,0,0,0,.618-3.357,16.283,16.283,0,0,0-.112-2.044c-.026-.221-.047-.349-.047-.349S2016.864,342.145,2016.146,343.5Z" transform="translate(-1973.891 -322.483)"/><path class="r" d="M1992.347,248.04s4.25,6.919,8.118,9.644,1.907,4.9,1.907,4.9,10.093-21.248.5-22.719-15.48-1.58-15.752,12.8C1987.117,252.671,1991.476,247.932,1992.347,248.04Z" transform="translate(-1959.001 -238.175)"/><path class="t" d="M2014.329,371.4c-1.555,2.293-5.663,2.911-5.663,2.911h0a16.284,16.284,0,0,0-.112-2.044A11.568,11.568,0,0,0,2014.329,371.4Z" transform="translate(-1976.362 -345.219)"/><path class="u" d="M1961.5,408.867h0a8.5,8.5,0,0,0-.4,2.289l1.492-2.252s2.665-3.82,3.577-4.814a15.164,15.164,0,0,1,2.167-1.863S1963.089,404.746,1961.5,408.867Z" transform="translate(-1937.927 -370.183)"/><path class="s" d="M2059.365,415.516s6.5-2.55,8.424-2.7c0,0-1.308-10.439-7.693-9.333S2059.365,415.516,2059.365,415.516Z" transform="translate(-2015.641 -371.135)"/><path class="i" d="M1993.229,392.568s-4.773,7.339-3.157,7.98,10.361-.856,14.079-7.826C2004.151,392.722,1998.591,389.871,1993.229,392.568Z" transform="translate(-1961.123 -361.421)"/><path class="q" d="M2040.571,405.25c-.332,5.754-1.965,11.213-3.312,16.222-.2.726-.384,1.444-.559,2.15h-13.236c-.032-1.984-.026-3.734.036-5.195.667-15.972,5.728-24.37,5.728-24.37s1.617.543,6.268,1.861c3.188.9,4.391,4.957,4.83,7.417a.211.211,0,0,1,.007.029A17.582,17.582,0,0,1,2040.571,405.25Z" transform="translate(-1988.421 -363.566)"/><path class="q" d="M1957.617,397.529a38.261,38.261,0,0,0-1.968,3.949,42.89,42.89,0,0,0-3.692,15.559,91.48,91.48,0,0,1-1.06,9.4h-2.641a41.945,41.945,0,0,0-1.454-8.184c-.361-1.285-.693-2.245-.872-2.853-.842-2.866,1.851-6.681,2.752-8.047S1951.745,399.715,1957.617,397.529Z" transform="translate(-1925.515 -366.378)"/><path class="q" d="M2070.634,430.684h-7.108a9.426,9.426,0,0,0-.42-2.15c-1.291-4.59-5.114-13.526-5.114-13.526s-5.719-9.345-.3-11.726,7.751,4.274,8.48,7.114a.209.209,0,0,1,.007.029C2066.359,411.1,2069.586,423.407,2070.634,430.684Z" transform="translate(-2014.268 -370.628)"/></g><g transform="translate(1501.991 324.208)"><path class="v" d="M2482.181,550.225h5.731l-1.754-3.639h-5.731Z" transform="translate(-2458.927 -544.072)"/><path class="v" d="M2468.077,550.225h1.366l-1.754-3.639h-1.365Z" transform="translate(-2447.505 -544.072)"/><path class="v" d="M2368.127,535.184h23.208l-.77-1.819h-23.208Z" transform="translate(-2367.357 -533.365)"/></g><g transform="translate(1195.634 248.741)"><rect class="v" width="9.835" height="2.964" rx="1.482" transform="translate(0 0)"/><rect class="v" width="9.835" height="2.964" rx="1.482" transform="translate(0 7.107)"/><path class="v" d="M1.482,0H8.353A1.482,1.482,0,0,1,9.835,1.482v0A1.482,1.482,0,0,1,8.352,2.964H1.482A1.482,1.482,0,0,1,0,1.482v0A1.482,1.482,0,0,1,1.482,0Z" transform="translate(0 14.214)"/><rect class="v" width="2.798" height="2.964" rx="1.399" transform="translate(13.895 0)"/><rect class="v" width="2.798" height="2.964" rx="1.399" transform="translate(13.895 7.107)"/><path class="v" d="M1.4,0h0A1.4,1.4,0,0,1,2.8,1.4v.166a1.4,1.4,0,0,1-1.4,1.4h0A1.4,1.4,0,0,1,0,1.565V1.4A1.4,1.4,0,0,1,1.4,0Z" transform="translate(13.895 14.214)"/></g><g transform="translate(1238.103 399.26)"><path class="v" d="M1506.313,1093.891H1516.6l-3.149-6.531h-10.288Z" transform="translate(-1498.35 -1087.36)"/><path class="v" d="M1481,1093.891h2.451l-3.149-6.531h-2.451Z" transform="translate(-1477.847 -1087.36)"/></g><g transform="translate(1332.11 273)"><rect class="w" width="137.266" height="161.12" rx="8" transform="translate(0 19.176)"/><rect class="h" width="10.887" height="2.016" transform="translate(62.238 114.226)"/><rect class="f" width="63.35" height="3.904" transform="translate(20.905 132.702)"/><rect class="f" width="51.228" height="3.904" transform="translate(20.905 151.445)"/><rect class="f" width="30.032" height="3.904" transform="translate(20.905 142.073)"/><path class="h" d="M2068.725,763.9v1.972h11.609v10.9h1.972V763.9Zm-78.833,12.867h1.972v-10.9h11.609V763.9h-13.58Zm90.442,56.219v10.9h-11.609v1.972h13.581v-12.87Zm-88.47,0h-1.972v12.87h13.58v-1.972h-11.609Z" transform="translate(-1967.896 -728.659)"/><g transform="translate(96.653 132.416)"><path class="h" d="M2394.13,1298.159a11.61,11.61,0,1,1,11.61-11.61A11.623,11.623,0,0,1,2394.13,1298.159Zm0-20.973a9.363,9.363,0,1,0,9.363,9.363A9.373,9.373,0,0,0,2394.13,1277.187Z" transform="translate(-2382.521 -1274.94)"/><path class="x" d="M2417.219,1324.488l-5.274-5.275,1.589-1.589,3.686,3.686,5.166-5.167,1.589,1.589Z" transform="translate(-2406.35 -1308.309)"/></g><path class="y" d="M2081.482,865.9h-13.022c-.857-6.235-1.91-13.353-1.91-13.353s-.527,5.874-1.167,13.353h-52.109c-.475-6.725-1.048-11.758-1.254-11.861-.3-.15-2.157,5.817-3.7,11.861h-14.106c3.628-15.629,10.4-40.7,14.307-42.2,5.569-2.142,28.279-9.141,28.279-9.141h12.96s23.03,6.57,25.172,13.714C2076.635,833.96,2080.393,852.732,2081.482,865.9Z" transform="translate(-1971.396 -769.679)"/><path class="z" d="M2193.713,592.956s12.1,1.906,10.259,20.841-12.523,17.382-13.238,17.363-10.722.345-11.5-22.772C2179.232,608.387,2178.892,591.293,2193.713,592.956Z" transform="translate(-2121.233 -590.125)"/><path class="z" d="M2216.464,756.283s-.332,7.788.422,9.474-9.986,7.1-16.537,1.066c0,0,1.582-8.464,1.142-11.463S2216.464,756.283,2216.464,756.283Z" transform="translate(-2138.335 -720.826)"/><path class="z" d="M2307.332,672.259s1.325-1.415,1.811.017-2.056,7.836-1.89,8.123c0,0-.242.556-.56.25S2307.332,672.259,2307.332,672.259Z" transform="translate(-2224.406 -653.936)"/><path class="z" d="M2171.934,670.907s-1.3-1.441-1.811-.018,1.9,7.874,1.732,8.158c0,0,.231.56.555.261S2171.934,670.907,2171.934,670.907Z" transform="translate(-2113.799 -652.824)"/><path class="aa" d="M2198.2,599.783l-1.732,2.316a46.223,46.223,0,0,0-.229-5.874c-.278-.8-.7-3.229-.935-3.8s-10.393-3.421-19.366.831c0,0,.395,3.651-.466,3.976s-.438,5.947-.438,5.947l-1.424-1.607s-2.181-14.567-1.642-16.085,2.254-10.647,20.665-5.228c0,0,5.74-1.216,6.892,2.747S2198.2,599.783,2198.2,599.783Z" transform="translate(-2115.282 -578.557)"/><path class="z" d="M2216.859,814.6s2.73.583-8.7,11.532c0,0-8.1-8.964-7.841-10.466S2216.859,814.6,2216.859,814.6Z" transform="translate(-2138.309 -769.67)"/><path class="ab" d="M2241.587,819.42l3.118,5.332,9.25-15.7-4.006-2.794Z" transform="translate(-2171.732 -762.958)"/><path class="ab" d="M2191.089,824.219l-7.567-12.04-4.29,2.757,7.691,14.615Z" transform="translate(-2121.234 -767.756)"/><path class="ab" d="M2227,908.673c.093,1.776.134,3.953.139,6.4h-.429c0-2.436-.046-4.609-.139-6.38-.7-13.358,2.534-29.611,2.555-33.42l.418.083C2229.528,879.166,2226.3,895.372,2227,908.673Z" transform="translate(-2159.494 -818.854)"/><path class="ac" d="M2212.281,780.758a8.057,8.057,0,0,0,6.936,2.229,11.693,11.693,0,0,0,5.864-2.67,7.549,7.549,0,0,1-6.3,4.389A6.686,6.686,0,0,1,2212.281,780.758Z" transform="translate(-2147.998 -741.953)"/></g></g><g transform="translate(-440.937 -488.019)"><g transform="translate(1626.504 916.507)"><path class="ad" d="M1697.232,1039.776l-35.289,19.4-35.439-55.769,42.863-14.889Z" transform="translate(-1626.504 -988.517)"/></g><g transform="translate(1628.851 918.154)"><path class="ae" d="M1698.793,1040.767l-33,18.14-33.142-52.154,40.084-13.924Z" transform="translate(-1632.65 -992.83)"/></g><g transform="translate(1665.237 944.747)"><path class="i" d="M1769.774,1074.058s-6.142-2.937-8.838-4.473-9.631-3.643-10.191-4.144-20.558-1.734-21.771-2.78-2.392,2.452,2.791,3.588,12.4,3.911,12.79,5.937-5.324,2.506-5.9,4.175.163,1.294.982,1.652,6.8-2.955,9.432-2.015,6.651-.362,8.668.328,11.819,3.989,11.819,3.989Z" transform="translate(-1727.931 -1062.468)"/></g><g transform="translate(1633.201 944.804)"><path class="i" d="M1671.062,1097.979s-5.16-4.644-7.657-6.587-7.183-7.658-7.873-7.991-9.639-18.7-11.1-19.433,1.38-3.209,4.468,1.233,8.513,10.158,10.575,9.741.288-5.993,1.635-7.188,1.283-.351,1.94.283-.136,7.56,1.774,9.672,2.249,6.409,3.684,8.04,8.361,9.585,8.361,9.585Z" transform="translate(-1644.04 -1062.617)"/></g><g transform="translate(1771.351 1227.397)"><path class="af" d="M2005.8,1803.625s1.116,7.748,1.256,8.911,12.417-.685,12.417-.685l.994-9.223S2007.339,1802.532,2005.8,1803.625Z" transform="translate(-2005.805 -1802.625)"/></g><g transform="translate(1751.17 1235.798)"><path class="ad" d="M1974.265,1825.15s-3.89,4.669-7.652,6.7-9.675,2.841-11.9,4.947c-1.606,1.521-5.85,8.066,9.776,7.934s23.16.925,24.834-1.585-2.423-18.524-2.423-18.524S1983.2,1825.956,1974.265,1825.15Z" transform="translate(-1952.959 -1824.625)"/></g><g transform="translate(1683.381 1227.397)"><path class="af" d="M1775.445,1803.625s1.116,7.748,1.256,8.911,12.417-.685,12.417-.685l.994-9.223S1776.98,1802.532,1775.445,1803.625Z" transform="translate(-1775.445 -1802.625)"/></g><g transform="translate(1655.983 1235.798)"><path class="ad" d="M1732.223,1825.15s-3.89,4.669-7.652,6.7-17.608,3.706-19.832,5.812c-1.606,1.521-4.277,7.641,17.709,7.069,15.62-.407,23.16.925,24.833-1.585s-2.422-18.524-2.422-18.524S1741.372,1826.047,1732.223,1825.15Z" transform="translate(-1703.699 -1824.625)"/></g><g transform="translate(1733.015 1029.317)"><path class="ad" d="M1933.586,1283.926s11.536,18.329,10.675,34.9,4.183,34.656,5.916,51.964c1.932,19.294,9.838,64.972,10.125,75.293s-1.227,43.277-1.227,43.277l-15.827.362s-13.292-79.856-16.734-88-20.515-66.237-21.088-72.755S1933.586,1283.926,1933.586,1283.926Z" transform="translate(-1905.417 -1283.926)"/></g><g transform="translate(1681.243 1026.16)"><path class="ad" d="M1789.058,1281.3s-8.693,45.41-9.841,55.55-1.913,49.072-2.486,55.41-3.825,82.934-6.885,92.349h20.233s15.532-55.682,15.532-82.028,12-57.275,19.745-74.657,25.475-17.794,30.237-50.045C1855.592,1277.877,1795.5,1271.07,1789.058,1281.3Z" transform="translate(-1769.845 -1275.658)"/></g><g transform="translate(1714.356 873.802)"><path class="i" d="M1884.133,878.108s-15.484-5.784-22.624,6-6.452,35.384,1.353,38.286,19.53,1.384,23.526-5.991,7.6-18.038,7.43-25.164S1888.2,880.166,1884.133,878.108Z" transform="translate(-1856.556 -876.69)"/></g><g transform="translate(1721.884 905.354)"><path class="i" d="M1876.73,974.007s.644,4.18-.421,6.24,20.06,2.113,20.06,2.113a139.2,139.2,0,0,1,4.967-20.666C1904.587,952.23,1876.73,974.007,1876.73,974.007Z" transform="translate(-1876.27 -959.311)"/></g><g transform="translate(1715.021 872.019)"><path class="ag" d="M1890.226,907.737s-1.457,2.406-7.409,1.472-13.213-8.852-15.7-9.721-2.509-2.329-2.509-2.329l-1.555,2.273-2.64.167s2.407-7.083-1.225-9.972,3.77-22.927,22.857-16.255c0,0,14.66,4.041,14.127,12.379S1893.506,903.584,1890.226,907.737Z" transform="translate(-1858.297 -872.019)"/></g><g transform="translate(1720.669 920.254)"><path class="ah" d="M1873.088,1004.117s.067-3.934,1.851-4.312,19.687-2.1,21.876-1.238v4.583S1892.6,1005.747,1873.088,1004.117Z" transform="translate(-1873.088 -998.329)"/></g><g transform="translate(1721.26 891.087)"><path class="i" d="M1875.1,924.991c.334-1.4,3.891-5.395,5.252-1.116s-2.057,10.035-3.965,9.542S1874.257,928.536,1875.1,924.991Z" transform="translate(-1874.634 -921.951)"/></g><g transform="translate(1649.542 972.529)"><path class="q" d="M1686.905,1135.223a.05.05,0,0,1,.03,0C1686.812,1135.274,1686.794,1135.279,1686.905,1135.223Z" transform="translate(-1686.831 -1135.22)"/></g><g transform="translate(1649.646 925.075)"><path class="ai" d="M1811.657,1158.86s-9.5,2.8-25.689,4.581-56.653-.646-56.908-2.557,8.7-71.236,8.193-74.807-.783-16.29-.783-16.29c-.2,3.485-3.751,17.722-8.037,25.483-1.549,2.8-6.744,11.593-9.248,9.594-12.121-9.678-30.89-46.146-32.08-46.453,1-.435,8.9-4.07,10-4.44.97-.324,9.714,8.935,15.013,14.674,2.363,2.559,4.04,4.417,4.04,4.417,1.53-3.442,7.1-25.128,8.834-32.633,3.907-16.926,3.306-17.63,3.306-17.63,11.847-3.583,29.828-10.877,29.828-10.877l23.727-.967s21.776,4.793,30.351,8.667c.813.367.817,19.427,3.049,24.424l-7.11,15s-4.107,29.714-4.959,42.929C1802.795,1108.04,1811.657,1158.86,1811.657,1158.86Z" transform="translate(-1687.105 -1010.954)"/></g><g transform="translate(1752.368 933.742)"><path class="ai" d="M1982.511,1082.818c-.62,2-3.433,3.689-5.26,4.428a6.8,6.8,0,0,1-3.8.382l-.93-.172h0l-16.26-3.016s-3.558-40.973,22.213-50.79C1979.157,1033.873,1988.2,1064.473,1982.511,1082.818Z" transform="translate(-1956.097 -1033.65)"/></g><g transform="translate(1768.794 966.61)"><path class="aj" d="M2003.839,1140.447h0a6.8,6.8,0,0,1-3.8.382l-.93-.172h0l1.6-20.937Z" transform="translate(-1999.111 -1119.72)"/></g><g transform="translate(1674.658 982.765)"><path class="aj" d="M1756.646,1166.44l-1.987,8.416s-2.157-8.445-2.053-12.833C1754.969,1164.581,1756.646,1166.44,1756.646,1166.44Z" transform="translate(-1752.602 -1162.023)"/></g><g transform="translate(1746.343 876.569)"><path class="ag" d="M1940.32,883.977s20.293-2.541.345,31.355Z" transform="translate(-1940.32 -883.934)"/></g><g transform="translate(1640.755 919.253)"><path class="ad" d="M1665.885,1004.859l-2.063-3.544,16.248-5.606,2.062,3.525Z" transform="translate(-1663.822 -995.709)"/></g></g><g transform="translate(20 -102)"><g transform="translate(132.635 118.9)"><rect class="p" width="79.58" height="71.671" rx="8" transform="translate(0 7.652)"/><g transform="translate(24.836)"><g transform="translate(5.291)"><path class="ak" d="M1995.735,265.248s-5.085,2.792-3.471,9.659,2.228,7.773.917,10.548-2.465,14.4-1.066,16.529,15.584-10.375,17.16-20.377-1.972-14.25-3.23-15.835S2000.221,262.7,1995.735,265.248Z" transform="translate(-1991.477 -263.873)"/></g><g transform="translate(0 25.595)"><path class="i" d="M2034.545,421.043h5.445c.263-2.686.507-4.555.457-4.832-.08-.456,5.418-14.878,5.931-16.07s2.532-4.388,2.8-7.4-3.662-4.228-3.662-4.228c-5.3.95-7.1,8.283-7.1,8.283s-2.226,14.871-3.352,19.056A26.624,26.624,0,0,0,2034.545,421.043Z" transform="translate(-2034.545 -388.512)"/></g><path class="al" d="M2034.993,395.323l8.107,3.418s7.453-18.493,1.206-16.428C2038.078,384.371,2035.277,388.241,2034.993,395.323Z" transform="translate(-2032.252 -357.863)"/><g transform="translate(2.232 23.226)"><path class="al" d="M1972.511,399.916c.237,1.836,1.206,8.34.99,10.1-.036.29-.156.957-.336,1.863h19.549c-.52-1.856-.993-3.5-1.279-4.455-.95-3.149-.041-3.992.439-6.511.187-.986.843-2.859,1.56-4.975.24-.706.486-1.443.723-2.182a45.034,45.034,0,0,0,1.506-6.977c1.179-7.52-4.6-8.243-4.6-8.243-2.149-.4-5.9-1.556-5.9-1.556l-5.881,1.223a6.379,6.379,0,0,0-1.376.813,0,0,0,0,0,0,0,10.719,10.719,0,0,0-1.323,1.16,35.505,35.505,0,0,0-3.2,4.625c-.39.637-.783,1.29-1.153,1.933-1.2,2.069-2.046,3.738-2.019,5.621C1970.223,394.205,1972.275,398.08,1972.511,399.916Z" transform="translate(-1970.198 -376.975)"/></g><path class="i" d="M2009.1,378.39s-3.684,6.3-2.314,6.767,8.592-1.12,11.413-7.069C2018.2,378.088,2013.458,375.934,2009.1,378.39Z" transform="translate(-1997.794 -353.94)"/><path class="i" d="M2012.746,350.019s3.273,1.385,6.236-3.174c0,0-.8-5.177.887-8.172s-7.359,3.59-7.359,3.59.146.617.3,1.529c.077.467.157,1.009.218,1.585.051.48.09.984.107,1.486A8.123,8.123,0,0,1,2012.746,350.019Z" transform="translate(-2000.913 -322.692)"/><path class="am" d="M1978.307,431.289c.674,3.465,5.508,7.807,5.508,7.807.239-.708.486-1.443.722-2.182A31.631,31.631,0,0,1,1978.307,431.289Z" transform="translate(-1958.347 -396.91)"/><g transform="translate(19.638 25.821)"><path class="i" d="M1962.822,400.931c.306,1.263,1.716,14.054,1.562,14.491-.09.25-.773,3.209-1.456,6.5h6.311a15.5,15.5,0,0,0,.936-4.875c-.4-4.315,1.06-18.07,1.06-18.07s1.309-8.32-5.595-9.36c0,0-4.079.537-4.325,3.549S1962.515,399.671,1962.822,400.931Z" transform="translate(-1961.288 -389.615)"/></g><path class="al" d="M1969.559,398.971l-8.568,2s-6.8-13.2-.675-15.606C1966.768,382.826,1971.106,391.772,1969.559,398.971Z" transform="translate(-1939.464 -360.067)"/><g transform="translate(6.046 1.763)"><path class="z" d="M2009.525,272.8s-7.446,2.733-2.727,15.583,14.355-2.194,12.9-10.09S2009.525,272.8,2009.525,272.8Z" transform="translate(-2005.232 -272.459)"/></g><g transform="translate(5.869 0.696)"><path class="ak" d="M2004.5,276.484a17.069,17.069,0,0,0,10.237,3.672s1.474,3.593,1.712,4.7c0,0,6.231-10.7-.933-16.1S2001.86,274.242,2004.5,276.484Z" transform="translate(-2003.902 -267.262)"/></g><g transform="translate(15.857 11.675)"><path class="z" d="M2016.107,323.413c0-.952.487-3.14,1.926-2.6s.15,5.008-.8,4.782C2017.235,325.593,2016.1,325.665,2016.107,323.413Z" transform="translate(-2016.107 -320.727)"/></g><path class="t" d="M2022.638,363.416a7.919,7.919,0,0,0,4.894-4.415c-2.845,3.677-4.992,3.149-4.992,3.149C2022.59,362.63,2022.594,362.929,2022.638,363.416Z" transform="translate(-2010.425 -339.466)"/></g><g transform="translate(13.002 20.622)"><path class="h" d="M1910.443,364.3v1.143h-6.73v6.316h-1.143V364.3Zm45.7,7.459H1955V365.44h-6.73V364.3h7.873Zm-52.433,32.593v6.318h6.73v1.143h-7.873v-7.462Zm51.29,0h1.143v7.462h-7.873v-1.143H1955Z" transform="translate(-1902.57 -364.297)"/></g><g transform="translate(36.936 65.768)"><rect class="h" width="6.312" height="1.169"/></g></g><g class="an" transform="translate(335.403 147.821)"><rect class="ao" width="108.315" height="108.315" rx="8" transform="translate(0 5.012)"/><rect class="f" width="50.148" height="2.477" transform="translate(29.084 88.667)"/><rect class="f" width="35.942" height="2.477" transform="translate(36.187 96.473)"/><rect class="g" width="73.008" height="62.641" transform="translate(17.654 9.062)"/><g transform="translate(18.757)"><path class="ap" d="M1352.208,648.125c2.4-6.361,8.181-9.281,10.908-10.191.971-.322,2.705-.888,4.533-1.48,3.293-1.064,6.891-2.222,6.891-2.222H1385.9s3.934,1.319,8.116,2.784a0,0,0,0,0,0,0c3.852,1.351,7.909,2.824,9.278,3.512,2.856,1.426,7.661,11.621,8.632,12.789a89.927,89.927,0,0,1,4.924,9.009h-12.241c-1.294-2.222-2.29-3.945-2.29-3.945s-.774,1.7-1.713,3.945H1361.4c-.62-2.609-1.007-5.895-1.007-5.895s-2.1,2.856-4.393,5.895h-11.3C1347.442,657.718,1350.853,651.715,1352.208,648.125Z" transform="translate(-1344.693 -600.929)"/><g transform="translate(26.502 1.994)"><path class="i" d="M1485.585,481.854s-8.885,1.4-7.532,15.3,9.195,12.762,9.719,12.748,7.872.253,8.445-16.719C1496.217,493.184,1496.467,480.633,1485.585,481.854Z" transform="translate(-1477.913 -481.771)"/></g><g transform="translate(25.125 12.994)"><path class="i" d="M1565.9,535.794s-.973-1.039-1.33.013,1.327,5.744,1.387,5.964c0,0,.178.408.411.184S1565.9,535.794,1565.9,535.794Z" transform="translate(-1564.521 -535.336)"/></g><g transform="translate(44.16 12.802)"><path class="i" d="M1472.729,534.876s.953-1.058,1.33-.013-1.2,5.768-1.272,5.99c0,0-.17.411-.407.191S1472.729,534.876,1472.729,534.876Z" transform="translate(-1472.322 -534.402)"/></g><g transform="translate(25.313)"><path class="aq" d="M1474.114,487.643l1.272,1.7a33.982,33.982,0,0,1,.168-4.313c.2-.584.516-2.371.687-2.792s7.63-2.511,14.218.61c0,0-.29,2.681.342,2.919s.321,4.366.321,4.366l1.046-1.18s1.6-10.695,1.205-11.81-1.655-7.816-15.172-3.838c0,0-4.214-.892-5.06,2.017S1474.114,487.643,1474.114,487.643Z" transform="translate(-1472.918 -472.059)"/></g><path class="i" d="M1467.368,600.013c0-.013,1.14-.56,1.14-.56.553-1.238.142-6.46.142-6.46s11.316-2.88,10.993-.678.975,7.319.975,7.319l5.805,2.883s-6.185,16.608-13.294,14.465-9.793-15.064-9.793-15.064Z" transform="translate(-1438.624 -566.962)"/><path class="t" d="M1507.783,606.465a6.709,6.709,0,0,1-4.988,2.354c-2.081,0-3.576-.583-5.649-2.605a5.955,5.955,0,0,0,5.636,4.2S1506.216,610.846,1507.783,606.465Z" transform="translate(-1466.927 -578.664)"/></g><g transform="translate(49.942 76.565)"><rect class="h" width="8.43" height="1.561"/></g><g transform="translate(18.377 16.263)"><path class="h" d="M1359.986,551.257v1.527H1351v8.437h-1.526v-9.964Zm61.046,9.964H1419.5v-8.437h-8.989v-1.527h10.516ZM1351,604.754v8.44h8.99v1.527H1349.47v-9.967Zm68.508,0h1.527v9.967h-10.516v-1.527h8.989Z" transform="translate(-1349.47 -551.257)"/></g></g><g class="ar" transform="translate(0 168.243)"><rect class="p" width="148.242" height="174.002" rx="8" transform="translate(0 11.878)"/><g transform="translate(69.27 114.529)"><rect class="h" width="11.758" height="2.178"/></g><g transform="translate(26.25 134.482)"><rect class="f" width="68.415" height="4.216"/><rect class="f" width="55.324" height="4.216" transform="translate(0 20.241)"/><rect class="f" width="32.433" height="4.216" transform="translate(0 10.12)"/></g><g transform="translate(24.685 29.23)"><path class="h" d="M2004.562,763.9v2.129h-12.537V777.8H1989.9V763.9Zm85.136,13.9h-2.129V766.031h-12.537V763.9H2089.7Zm-97.673,60.714v11.77h12.537v2.129H1989.9v-13.9Zm95.544,0h2.129v13.9h-14.666v-2.129h12.537Z" transform="translate(-1989.895 -763.902)"/></g><g transform="translate(100.784 134.173)"><path class="h" d="M2395.061,1300.016a12.538,12.538,0,1,0-12.538-12.538A12.553,12.553,0,0,0,2395.061,1300.016Zm0-22.65a10.111,10.111,0,1,1-10.111,10.111A10.123,10.123,0,0,1,2395.061,1277.366Z" transform="translate(-2382.523 -1274.94)"/><g transform="translate(6.042 8.461)"><path class="al" d="M2417.644,1325.154l-5.7-5.7,1.716-1.716,3.98,3.98,4.154-3.98,1.974,1.716Z" transform="translate(-2410.948 -1319.143)"/><path class="al" d="M2417.644,1317.742l-5.7,5.7,1.716,1.716,3.98-3.98,4.154,3.98,1.974-1.716Z" transform="translate(-2410.948 -1315.143)"/></g></g><g transform="translate(31.684 0)"><g transform="translate(0.217 48.109)"><path class="as" d="M2001.815,910.591h7.131c.13-.285.236-.534.323-.732,2.116-5,13.02-16.453,13.02-16.453v.025a.021.021,0,0,1,.006.012v.012c.006.019.012.031.019.049s.013.056.025.093a.214.214,0,0,1,.012.062c.006.019.013.031.019.05.447,1.67,2.644,9.986,3.742,16.881h48.253c.111-.639.242-1.248.391-1.812a39.073,39.073,0,0,0,.931-4.99c.006-.08.018-.155.025-.236.037-.292.068-.583.093-.869a45.783,45.783,0,0,0,.081-7.987c.136.292,1.111,3.866,2.389,8.279.7,2.42,1.5,5.1,2.284,7.615h11.395l-14.3-41.252c-.316-.248-4.027-2.042-6.734-3.333-2.762-1.316-6.095-3.246-9.1-4.9-1.539-.844-2.992-1.607-4.251-2.185l-.193-.087v-.006c-2.079-.95-3.463-1.577-3.463-1.577h-.006c-.05-.006-.378-.037-.9-.087-2.9-.279-11.916-1.123-14.932-1.3-.249-.019-.459-.025-.621-.031a2.44,2.44,0,0,0-.3,0,37.943,37.943,0,0,0-4.679,1.6c-.093.031-.187.068-.279.106l-.348.13c-.211.081-.428.162-.645.249-.435.174-.888.347-1.341.527-.156.062-.317.124-.478.186-4.884,1.936-10.482,4.338-11.81,5.294-.881.627-3.618,5.784-6.79,12.164C2007.363,887.032,2003.187,902.808,2001.815,910.591Z" transform="translate(-2001.815 -855.835)"/></g><g transform="translate(35.627 31.909)"><path class="i" d="M2186.13,791.747c.129,6.486,12.687,10.035,12.687,10.035s5.253-6.586,4-7.217c-.493-.248-.693-1.231-.754-2.333a22.747,22.747,0,0,1,.071-2.942c.037-.459.073-.754.073-.754s-1.794-1.893-4.077-4.149c-3.989-3.944-9.473-9-9.481-6.987a1.771,1.771,0,0,0,.046.381C2189.657,782.305,2186.13,791.747,2186.13,791.747Z" transform="translate(-2186.13 -776.945)"/></g><g transform="translate(40.464 37.207)"><path class="t" d="M2184.324,802.748h0c.025.038.557.835,1.467,1.978,1.928,2.425,5.552,6.409,9.627,8.009a22.792,22.792,0,0,1,.071-2.942,6.547,6.547,0,0,0,1.247-.15,38.673,38.673,0,0,0-2.73-4l-2.521-.754Z" transform="translate(-2184.324 -802.748)"/></g><g transform="translate(33.777 10.654)"><path class="i" d="M2147.356,695.24c1.086,2.363,2.118,4.076,2.411,4.755h0a8.388,8.388,0,0,0,1.466,1.978c2.07,2.23,5.917,5.17,9.7,5.068a6.552,6.552,0,0,0,1.248-.15,5.935,5.935,0,0,0,4.323-2.986c7.834-15.34,2.162-27.884,2.162-27.884s-21.423-6.058-24.775.391C2141.539,680.937,2144.8,689.687,2147.356,695.24Z" transform="translate(-2143.08 -673.442)"/></g><g transform="translate(30.567)"><path class="at" d="M2168.8,634.794s1.99-.11,2.482-3.882c.486-3.727-.5-4.76-.5-4.76s-8.844-3.7-12.02-4.184-10.986-.944-12.816,1.15c0,0-4.448-1.034-5.66,6.35-1.922,11.714,6.55,23.088,6.55,23.088s-.072-7.653,1.616-8.666,3.144,1.4,3.144,1.4l3.452.618s-5.243-11.322,1.046-11.741S2165.2,635.45,2168.8,634.794Z" transform="translate(-2140.003 -621.559)"/></g><g transform="translate(36.03 17.448)"><path class="i" d="M2242.468,709.753c-.328-3.371-6.425-4.658-6.017-1.125s3.411,6.929,4.8,6.809S2242.719,712.322,2242.468,709.753Z" transform="translate(-2236.432 -706.523)"/></g><g transform="translate(0 49.715)"><path class="au" d="M2217.119,882.627c1.986-6.362,3.705-11.394,4.468-11.941,1.334-.956,11.91-3.866,16.931-5.834.161-.062.322-.124.478-.186.453-.18.906-.354,1.341-.527.217-.087.435-.167.646-.248l.347-.13c.093-.037.186-.074.279-.106.006.006.012.019.025.025a82.449,82.449,0,0,1,5.542,7.088c5.189,7.373,11.947,19.32,10.911,30.348-.335,3.538-.745,8.62-1.433,14.324-.05.453-.106.906-.168,1.365h-23.41c-.285-5.971-.794-13.834-1.563-16.881-.006-.019-.012-.031-.019-.05a.222.222,0,0,0-.012-.062c-.006-.031-.019-.062-.025-.094s-.012-.031-.019-.049v-.012a.02.02,0,0,0-.006-.012s-5.666,8.856-5.958,17.16h-14.734C2211.458,909.09,2213.711,893.544,2217.119,882.627Z" transform="translate(-2210.739 -863.655)"/></g><g transform="translate(55.868 51.198)"><path class="au" d="M1990.573,870.953s1.769,5.883,4.053,20.574v.006c.08.491.155.993.235,1.508.006.056.019.118.025.18.056.335.106.683.156,1.03.006.043.012.081.019.124.037.23.074.465.105.707.087.577.174,1.173.26,1.775.857,6,2,15.522,3.159,25.687h9.253a43.137,43.137,0,0,0,.937-7.156.865.865,0,0,1,.043.118c.739,2.048,1.552,4.276,2.377,6.442l.223.6h15.95l-15.888-41.563c-.316-.248-4.406-2.451-7.112-3.736-2.824-1.347-6.392-3-9.558-4.462-1.514-.7-2.935-1.353-4.139-1.905Z" transform="translate(-1990.573 -870.878)"/></g><g transform="translate(28.257 49.715)"><path class="av" d="M2216.837,879.748l6.114,3.451-2.613,2.663,5.735,30.944h2.16c.795-6.256,1.248-11.872,1.6-15.689,1.595-17.055-15.422-36.287-16.477-37.46-.819.31-1.7.652-2.613,1.012Z" transform="translate(-2210.743 -863.655)"/></g><g transform="translate(55.775 51.111)"><path class="av" d="M2120.589,870.455s2.284,7.454,4.94,26.066c.856,5.989,2,15.522,3.165,25.687h.9l1.186-29.237-2.911-3.153,2.588-3.233-5.536-14.138c-1.514-.7-2.936-1.353-4.139-1.905Z" transform="translate(-2120.589 -870.455)"/></g><g transform="translate(30.561 46.711)"><path class="aw" d="M2206.544,852.1l5.066-3.077s.142,2.778,12.687,10.035l-3.563,10.034Z" transform="translate(-2206.544 -849.028)"/></g><g transform="translate(48.314 48.111)"><path class="aw" d="M2173.553,855.844s-.2,3-3.337,8.635l6.953,9.064.507-14.7Z" transform="translate(-2170.217 -855.844)"/></g><g transform="translate(47.328 56.746)"><path class="ax" d="M2187,897.9s-1.347,5.39-.862,6.9c0,0,2.963,1.078,5.093-.269A23.675,23.675,0,0,0,2187,897.9Z" transform="translate(-2186.035 -897.895)"/></g><g transform="translate(48.297 62.133)"><path class="ax" d="M2165.33,937.07a135.489,135.489,0,0,1,.894,27.791h5.939c.08-1.173.155-2.4.229-3.674,1.1-19.171-5.672-36.3-5.672-36.3l-3.022-.757S2164.672,932.6,2165.33,937.07Z" transform="translate(-2163.698 -924.13)"/></g><g transform="translate(72.289 75.589)"><path class="ay" d="M2069.921,1001.086c.226,4.6.193,8.685.193,8.685v0c0,.022.006.147.016.352.009-.078.019-.154.029-.231.736,2.047,1.552,4.273,2.374,6.44a69.079,69.079,0,0,0,.185-7.019c-.33-12.9-4.386-19.661-4.386-19.661C2069.261,991.9,2069.708,996.727,2069.921,1001.086Z" transform="translate(-2068.331 -989.656)"/></g></g></g><g transform="translate(247.66 126.107)"><rect class="v" width="12.663" height="3.816" rx="1.908" transform="translate(0 0)"/><rect class="v" width="12.663" height="3.816" rx="1.908" transform="translate(0 9.151)"/><path class="v" d="M1.908,0h8.847a1.908,1.908,0,0,1,1.908,1.908v0a1.908,1.908,0,0,1-1.908,1.908H1.908A1.908,1.908,0,0,1,0,1.908v0A1.908,1.908,0,0,1,1.908,0Z" transform="translate(0 18.302)"/><rect class="v" width="3.603" height="3.816" rx="1.802" transform="translate(17.892 0)"/><rect class="v" width="3.603" height="3.816" rx="1.802" transform="translate(17.892 9.151)"/><path class="v" d="M1.8,0h0A1.8,1.8,0,0,1,3.6,1.8v.213a1.8,1.8,0,0,1-1.8,1.8h0A1.8,1.8,0,0,1,0,2.015V1.8A1.8,1.8,0,0,1,1.8,0Z" transform="translate(17.892 18.302)"/></g></g></g></svg>